<svg width="41" height="50" viewBox="0 0 41 50" fill="none" xmlns="http://www.w3.org/2000/svg">
<path d="M1.74227 11.3L13.2474 0.5H34.4021L37 18.5L25.1237 30.5H16.2165H7.30928L19.9278 17.3L23.6392 20.9L24.3814 25.3L25.1237 30.5L23.6392 11.3H1.74227Z" fill="white"/>
<path d="M16.2165 14.9L13.2474 12.1H1L2.85567 26.9L16.2165 14.9Z" fill="white"/>
<path d="M34.4021 0.5H13.2474L1.74227 11.3H23.6392M34.4021 0.5L23.6392 11.3M34.4021 0.5L37 18.5L25.1237 30.5M23.6392 11.3L25.1237 30.5M25.1237 30.5L24.3814 25.3L23.6392 20.9L19.9278 17.3L7.30928 30.5H16.2165H25.1237ZM13.2474 12.1L16.2165 14.9L2.85567 26.9L1 12.1H13.2474Z" stroke="white"/>
<mask id="path-3-outside-1_15_29" maskUnits="userSpaceOnUse" x="0" y="35.5" width="39" height="14" fill="black">
<rect fill="white" y="35.5" width="39" height="14"/>
<path d="M2.422 38.834H1.218V37.238H2.422V38.834ZM2.422 47.5H1.218V40.192H2.422V47.5ZM3.74872 44.35H5.06472C5.07872 45.82 6.14272 46.604 7.78072 46.604C9.30672 46.604 10.2727 45.89 10.2727 44.714C10.2727 44.098 10.0487 43.664 9.61472 43.44C9.18072 43.202 9.04072 43.16 8.64872 43.062L6.85672 42.656L6.19872 42.502C6.04472 42.46 5.80672 42.362 5.48472 42.222C5.17672 42.068 4.92472 41.914 4.74272 41.746C4.39272 41.41 4.02872 40.766 4.02872 39.982C4.02872 39.1 4.35072 38.414 5.00872 37.91C5.66672 37.406 6.52072 37.154 7.59872 37.154C8.70472 37.154 9.58672 37.42 10.2587 37.938C10.9307 38.456 11.2807 39.184 11.2947 40.108H9.99272C9.92272 38.876 9.01272 38.19 7.59872 38.19C6.19872 38.19 5.35872 38.848 5.35872 39.856C5.35872 40.402 5.59672 40.808 6.03072 41.046C6.47872 41.27 6.73072 41.34 7.17872 41.438L9.09672 41.858C10.7767 42.222 11.6167 43.132 11.6167 44.588C11.6167 45.554 11.2667 46.296 10.5527 46.842C9.85272 47.374 8.91472 47.64 7.73872 47.64C6.45072 47.64 5.45672 47.332 4.77072 46.716C4.08472 46.086 3.74872 45.302 3.74872 44.35ZM18.0136 40.192H19.2316V47.5H18.1956L18.0276 46.142H17.9156C17.5236 47.052 16.5716 47.64 15.4376 47.64C13.9256 47.64 13.0156 46.632 13.0156 44.854V40.192H14.2196V44.686C14.2196 45.974 14.7656 46.618 15.8436 46.618C17.1736 46.618 18.0136 45.568 18.0136 44.014V40.192ZM22.3162 38.834H21.1122V37.238H22.3162V38.834ZM22.3162 47.5H21.1122V40.192H22.3162V47.5ZM25.6869 41.2V46.492H27.2269V47.5H25.5469C24.8329 47.5 24.4829 47.164 24.4829 46.478V41.2H23.1529V40.192H24.4829V37.77H25.6869V40.192H27.2129V41.2H25.6869ZM31.2011 40.052C33.2031 40.052 34.4491 41.312 34.4491 43.342C34.4491 43.622 34.4351 43.874 34.4071 44.098H29.0171V44.518C29.0171 45.806 29.8991 46.66 31.2431 46.66C32.2651 46.66 33.0491 46.128 33.2871 45.302H34.4911C34.3371 46.016 33.9731 46.576 33.3711 47.01C32.7691 47.43 32.0551 47.64 31.2151 47.64C29.0871 47.64 27.7711 46.17 27.7711 43.818C27.7711 41.466 29.0871 40.052 31.2011 40.052ZM29.0171 43.006V43.202H33.2451V42.922C33.2451 41.788 32.4191 41.032 31.2011 41.032C29.9131 41.032 29.0171 41.83 29.0171 43.006ZM37.0581 47.5H35.4901V45.736H37.0581V47.5Z"/>
</mask>
<path d="M2.422 38.834H1.218V37.238H2.422V38.834ZM2.422 47.5H1.218V40.192H2.422V47.5ZM3.74872 44.35H5.06472C5.07872 45.82 6.14272 46.604 7.78072 46.604C9.30672 46.604 10.2727 45.89 10.2727 44.714C10.2727 44.098 10.0487 43.664 9.61472 43.44C9.18072 43.202 9.04072 43.16 8.64872 43.062L6.85672 42.656L6.19872 42.502C6.04472 42.46 5.80672 42.362 5.48472 42.222C5.17672 42.068 4.92472 41.914 4.74272 41.746C4.39272 41.41 4.02872 40.766 4.02872 39.982C4.02872 39.1 4.35072 38.414 5.00872 37.91C5.66672 37.406 6.52072 37.154 7.59872 37.154C8.70472 37.154 9.58672 37.42 10.2587 37.938C10.9307 38.456 11.2807 39.184 11.2947 40.108H9.99272C9.92272 38.876 9.01272 38.19 7.59872 38.19C6.19872 38.19 5.35872 38.848 5.35872 39.856C5.35872 40.402 5.59672 40.808 6.03072 41.046C6.47872 41.27 6.73072 41.34 7.17872 41.438L9.09672 41.858C10.7767 42.222 11.6167 43.132 11.6167 44.588C11.6167 45.554 11.2667 46.296 10.5527 46.842C9.85272 47.374 8.91472 47.64 7.73872 47.64C6.45072 47.64 5.45672 47.332 4.77072 46.716C4.08472 46.086 3.74872 45.302 3.74872 44.35ZM18.0136 40.192H19.2316V47.5H18.1956L18.0276 46.142H17.9156C17.5236 47.052 16.5716 47.64 15.4376 47.64C13.9256 47.64 13.0156 46.632 13.0156 44.854V40.192H14.2196V44.686C14.2196 45.974 14.7656 46.618 15.8436 46.618C17.1736 46.618 18.0136 45.568 18.0136 44.014V40.192ZM22.3162 38.834H21.1122V37.238H22.3162V38.834ZM22.3162 47.5H21.1122V40.192H22.3162V47.5ZM25.6869 41.2V46.492H27.2269V47.5H25.5469C24.8329 47.5 24.4829 47.164 24.4829 46.478V41.2H23.1529V40.192H24.4829V37.77H25.6869V40.192H27.2129V41.2H25.6869ZM31.2011 40.052C33.2031 40.052 34.4491 41.312 34.4491 43.342C34.4491 43.622 34.4351 43.874 34.4071 44.098H29.0171V44.518C29.0171 45.806 29.8991 46.66 31.2431 46.66C32.2651 46.66 33.0491 46.128 33.2871 45.302H34.4911C34.3371 46.016 33.9731 46.576 33.3711 47.01C32.7691 47.43 32.0551 47.64 31.2151 47.64C29.0871 47.64 27.7711 46.17 27.7711 43.818C27.7711 41.466 29.0871 40.052 31.2011 40.052ZM29.0171 43.006V43.202H33.2451V42.922C33.2451 41.788 32.4191 41.032 31.2011 41.032C29.9131 41.032 29.0171 41.83 29.0171 43.006ZM37.0581 47.5H35.4901V45.736H37.0581V47.5Z" fill="white"/>
<path d="M2.422 38.834V39.834H3.422V38.834H2.422ZM1.218 38.834H0.218V39.834H1.218V38.834ZM1.218 37.238V36.238H0.218V37.238H1.218ZM2.422 37.238H3.422V36.238H2.422V37.238ZM2.422 47.5V48.5H3.422V47.5H2.422ZM1.218 47.5H0.218V48.5H1.218V47.5ZM1.218 40.192V39.192H0.218V40.192H1.218ZM2.422 40.192H3.422V39.192H2.422V40.192ZM2.422 38.834V37.834H1.218V38.834V39.834H2.422V38.834ZM1.218 38.834H2.218V37.238H1.218H0.218V38.834H1.218ZM1.218 37.238V38.238H2.422V37.238V36.238H1.218V37.238ZM2.422 37.238H1.422V38.834H2.422H3.422V37.238H2.422ZM2.422 47.5V46.5H1.218V47.5V48.5H2.422V47.5ZM1.218 47.5H2.218V40.192H1.218H0.218V47.5H1.218ZM1.218 40.192V41.192H2.422V40.192V39.192H1.218V40.192ZM2.422 40.192H1.422V47.5H2.422H3.422V40.192H2.422ZM3.74872 44.35V43.35H2.74872V44.35H3.74872ZM5.06472 44.35L6.06467 44.3405L6.05524 43.35H5.06472V44.35ZM9.61472 43.44L9.13389 44.3168L9.14491 44.3229L9.15608 44.3286L9.61472 43.44ZM8.64872 43.062L8.89125 42.0919L8.8805 42.0892L8.86968 42.0867L8.64872 43.062ZM6.85672 42.656L6.62883 43.6297L6.63576 43.6313L6.85672 42.656ZM6.19872 42.502L5.9356 43.4668L5.95314 43.4715L5.97083 43.4757L6.19872 42.502ZM5.48472 42.222L5.03751 43.1164L5.06145 43.1284L5.08599 43.1391L5.48472 42.222ZM4.74272 41.746L4.05019 42.4674L4.05725 42.4742L4.06444 42.4808L4.74272 41.746ZM5.00872 37.91L4.40064 37.1161L4.40064 37.1161L5.00872 37.91ZM10.2587 37.938L9.64821 38.73L9.64821 38.73L10.2587 37.938ZM11.2947 40.108V41.108H12.31L12.2946 40.0929L11.2947 40.108ZM9.99272 40.108L8.99433 40.1647L9.04792 41.108H9.99272V40.108ZM6.03072 41.046L5.54989 41.9228L5.56653 41.9319L5.58351 41.9404L6.03072 41.046ZM7.17872 41.438L7.39263 40.4611L7.39242 40.4611L7.17872 41.438ZM9.09672 41.858L8.88281 42.8349L8.88497 42.8353L9.09672 41.858ZM10.5527 46.842L11.1578 47.6382L11.1602 47.6364L10.5527 46.842ZM4.77072 46.716L4.09427 47.4526L4.10259 47.46L4.77072 46.716ZM3.74872 44.35V45.35H5.06472V44.35V43.35H3.74872V44.35ZM5.06472 44.35L4.06476 44.3595C4.07425 45.356 4.45298 46.2176 5.18727 46.8077C5.89259 47.3746 6.81659 47.604 7.78072 47.604V46.604V45.604C7.10685 45.604 6.67985 45.4414 6.44017 45.2488C6.22946 45.0794 6.06918 44.814 6.06467 44.3405L5.06472 44.35ZM7.78072 46.604V47.604C8.68505 47.604 9.54286 47.3941 10.2005 46.8988C10.8897 46.3799 11.2727 45.6085 11.2727 44.714H10.2727H9.27272C9.27272 44.9955 9.17277 45.1691 8.99742 45.3012C8.79058 45.4569 8.40238 45.604 7.78072 45.604V46.604ZM10.2727 44.714H11.2727C11.2727 43.8402 10.9319 42.9945 10.0734 42.5514L9.61472 43.44L9.15608 44.3286C9.19019 44.3462 9.20371 44.3613 9.21794 44.3888C9.23774 44.4272 9.27272 44.5234 9.27272 44.714H10.2727ZM9.61472 43.44L10.0956 42.5632C9.8638 42.4361 9.67324 42.3404 9.47098 42.2636C9.2709 42.1877 9.08495 42.1403 8.89125 42.0919L8.64872 43.062L8.40618 44.0321C8.60449 44.0817 8.68454 44.1043 8.76096 44.1334C8.83519 44.1616 8.93164 44.2059 9.13389 44.3168L9.61472 43.44ZM8.64872 43.062L8.86968 42.0867L7.07768 41.6807L6.85672 42.656L6.63576 43.6313L8.42776 44.0373L8.64872 43.062ZM6.85672 42.656L7.0846 41.6823L6.4266 41.5283L6.19872 42.502L5.97083 43.4757L6.62883 43.6297L6.85672 42.656ZM6.19872 42.502L6.46184 41.5372C6.39126 41.518 6.22366 41.4528 5.88344 41.3049L5.48472 42.222L5.08599 43.1391C5.38978 43.2712 5.69818 43.402 5.9356 43.4668L6.19872 42.502ZM5.48472 42.222L5.93193 41.3276C5.65369 41.1885 5.50014 41.0843 5.421 41.0112L4.74272 41.746L4.06444 42.4808C4.3493 42.7437 4.69975 42.9475 5.03751 43.1164L5.48472 42.222ZM4.74272 41.746L5.43525 41.0246C5.26245 40.8587 5.02872 40.4681 5.02872 39.982H4.02872H3.02872C3.02872 41.0639 3.52299 41.9613 4.05019 42.4674L4.74272 41.746ZM4.02872 39.982H5.02872C5.02872 39.3847 5.22615 39.0031 5.6168 38.7039L5.00872 37.91L4.40064 37.1161C3.47528 37.8249 3.02872 38.8153 3.02872 39.982H4.02872ZM5.00872 37.91L5.6168 38.7039C6.05616 38.3673 6.67764 38.154 7.59872 38.154V37.154V36.154C6.36379 36.154 5.27727 36.4447 4.40064 37.1161L5.00872 37.91ZM7.59872 37.154V38.154C8.54372 38.154 9.19331 38.3794 9.64821 38.73L10.2587 37.938L10.8692 37.146C9.98013 36.4606 8.86572 36.154 7.59872 36.154V37.154ZM10.2587 37.938L9.64821 38.73C10.0575 39.0455 10.285 39.476 10.2948 40.1231L11.2947 40.108L12.2946 40.0929C12.2764 38.892 11.8039 37.8665 10.8692 37.146L10.2587 37.938ZM11.2947 40.108V39.108H9.99272V40.108V41.108H11.2947V40.108ZM9.99272 40.108L10.9911 40.0513C10.9417 39.1815 10.5809 38.4235 9.91872 37.9016C9.27911 37.3975 8.45667 37.19 7.59872 37.19V38.19V39.19C8.15476 39.19 8.49433 39.3255 8.68072 39.4724C8.84455 39.6015 8.97375 39.8025 8.99433 40.1647L9.99272 40.108ZM7.59872 38.19V37.19C6.75577 37.19 5.96116 37.3866 5.3514 37.8467C4.71257 38.3288 4.35872 39.0425 4.35872 39.856H5.35872H6.35872C6.35872 39.6615 6.42487 39.5422 6.55604 39.4433C6.71627 39.3223 7.04167 39.19 7.59872 39.19V38.19ZM5.35872 39.856H4.35872C4.35872 40.7414 4.77377 41.4972 5.54989 41.9228L6.03072 41.046L6.51155 40.1692C6.44201 40.1311 6.41496 40.0962 6.40068 40.0712C6.38515 40.0439 6.35872 39.9817 6.35872 39.856H5.35872ZM6.03072 41.046L5.58351 41.9404C6.12849 42.2129 6.46557 42.3056 6.96502 42.4149L7.17872 41.438L7.39242 40.4611C6.99586 40.3744 6.82894 40.3271 6.47793 40.1516L6.03072 41.046ZM7.17872 41.438L6.96481 42.4149L8.88281 42.8349L9.09672 41.858L9.31063 40.8811L7.39263 40.4611L7.17872 41.438ZM9.09672 41.858L8.88497 42.8353C9.59977 42.9902 10.0161 43.2363 10.2519 43.4918C10.472 43.7302 10.6167 44.0644 10.6167 44.588H11.6167H12.6167C12.6167 43.6556 12.3414 42.8068 11.7215 42.1352C11.1174 41.4807 10.2737 41.0898 9.30847 40.8807L9.09672 41.858ZM11.6167 44.588H10.6167C10.6167 45.2698 10.391 45.7068 9.94527 46.0476L10.5527 46.842L11.1602 47.6364C12.1425 46.8852 12.6167 45.8382 12.6167 44.588H11.6167ZM10.5527 46.842L9.94764 46.0458C9.47214 46.4072 8.76946 46.64 7.73872 46.64V47.64V48.64C9.05997 48.64 10.2333 48.3408 11.1578 47.6382L10.5527 46.842ZM7.73872 47.64V46.64C6.59781 46.64 5.87873 46.367 5.43884 45.972L4.77072 46.716L4.10259 47.46C5.03471 48.297 6.30363 48.64 7.73872 48.64V47.64ZM4.77072 46.716L5.44712 45.9795C4.97471 45.5456 4.74872 45.0322 4.74872 44.35H3.74872H2.74872C2.74872 45.5718 3.19472 46.6264 4.09431 47.4525L4.77072 46.716ZM18.0136 40.192V39.192H17.0136V40.192H18.0136ZM19.2316 40.192H20.2316V39.192H19.2316V40.192ZM19.2316 47.5V48.5H20.2316V47.5H19.2316ZM18.1956 47.5L17.2032 47.6228L17.3117 48.5H18.1956V47.5ZM18.0276 46.142L19.0201 46.0192L18.9115 45.142H18.0276V46.142ZM17.9156 46.142V45.142H17.2576L16.9972 45.7464L17.9156 46.142ZM13.0156 40.192V39.192H12.0156V40.192H13.0156ZM14.2196 40.192H15.2196V39.192H14.2196V40.192ZM18.0136 40.192V41.192H19.2316V40.192V39.192H18.0136V40.192ZM19.2316 40.192H18.2316V47.5H19.2316H20.2316V40.192H19.2316ZM19.2316 47.5V46.5H18.1956V47.5V48.5H19.2316V47.5ZM18.1956 47.5L19.1881 47.3772L19.0201 46.0192L18.0276 46.142L17.0352 46.2648L17.2032 47.6228L18.1956 47.5ZM18.0276 46.142V45.142H17.9156V46.142V47.142H18.0276V46.142ZM17.9156 46.142L16.9972 45.7464C16.7851 46.2388 16.2307 46.64 15.4376 46.64V47.64V48.64C16.9126 48.64 18.2622 47.8652 18.834 46.5376L17.9156 46.142ZM15.4376 47.64V46.64C14.9152 46.64 14.6046 46.4743 14.411 46.2539C14.2019 46.0158 14.0156 45.5827 14.0156 44.854H13.0156H12.0156C12.0156 45.9033 12.2843 46.8632 12.9083 47.5736C13.5476 48.3017 14.4481 48.64 15.4376 48.64V47.64ZM13.0156 44.854H14.0156V40.192H13.0156H12.0156V44.854H13.0156ZM13.0156 40.192V41.192H14.2196V40.192V39.192H13.0156V40.192ZM14.2196 40.192H13.2196V44.686H14.2196H15.2196V40.192H14.2196ZM14.2196 44.686H13.2196C13.2196 45.4477 13.3776 46.2036 13.8626 46.7793C14.3749 47.3874 15.0994 47.618 15.8436 47.618V46.618V45.618C15.5099 45.618 15.4224 45.5266 15.3922 45.4907C15.3346 45.4224 15.2196 45.2123 15.2196 44.686H14.2196ZM15.8436 46.618V47.618C16.795 47.618 17.6253 47.2313 18.1992 46.5346C18.7572 45.8572 19.0136 44.9628 19.0136 44.014H18.0136H17.0136C17.0136 44.6192 16.8501 45.0268 16.6555 45.2629C16.477 45.4797 16.2222 45.618 15.8436 45.618V46.618ZM18.0136 44.014H19.0136V40.192H18.0136H17.0136V44.014H18.0136ZM22.3162 38.834V39.834H23.3162V38.834H22.3162ZM21.1122 38.834H20.1122V39.834H21.1122V38.834ZM21.1122 37.238V36.238H20.1122V37.238H21.1122ZM22.3162 37.238H23.3162V36.238H22.3162V37.238ZM22.3162 47.5V48.5H23.3162V47.5H22.3162ZM21.1122 47.5H20.1122V48.5H21.1122V47.5ZM21.1122 40.192V39.192H20.1122V40.192H21.1122ZM22.3162 40.192H23.3162V39.192H22.3162V40.192ZM22.3162 38.834V37.834H21.1122V38.834V39.834H22.3162V38.834ZM21.1122 38.834H22.1122V37.238H21.1122H20.1122V38.834H21.1122ZM21.1122 37.238V38.238H22.3162V37.238V36.238H21.1122V37.238ZM22.3162 37.238H21.3162V38.834H22.3162H23.3162V37.238H22.3162ZM22.3162 47.5V46.5H21.1122V47.5V48.5H22.3162V47.5ZM21.1122 47.5H22.1122V40.192H21.1122H20.1122V47.5H21.1122ZM21.1122 40.192V41.192H22.3162V40.192V39.192H21.1122V40.192ZM22.3162 40.192H21.3162V47.5H22.3162H23.3162V40.192H22.3162ZM25.6869 41.2V40.2H24.6869V41.2H25.6869ZM25.6869 46.492H24.6869V47.492H25.6869V46.492ZM27.2269 46.492H28.2269V45.492H27.2269V46.492ZM27.2269 47.5V48.5H28.2269V47.5H27.2269ZM24.4829 41.2H25.4829V40.2H24.4829V41.2ZM23.1529 41.2H22.1529V42.2H23.1529V41.2ZM23.1529 40.192V39.192H22.1529V40.192H23.1529ZM24.4829 40.192V41.192H25.4829V40.192H24.4829ZM24.4829 37.77V36.77H23.4829V37.77H24.4829ZM25.6869 37.77H26.6869V36.77H25.6869V37.77ZM25.6869 40.192H24.6869V41.192H25.6869V40.192ZM27.2129 40.192H28.2129V39.192H27.2129V40.192ZM27.2129 41.2V42.2H28.2129V41.2H27.2129ZM25.6869 41.2H24.6869V46.492H25.6869H26.6869V41.2H25.6869ZM25.6869 46.492V47.492H27.2269V46.492V45.492H25.6869V46.492ZM27.2269 46.492H26.2269V47.5H27.2269H28.2269V46.492H27.2269ZM27.2269 47.5V46.5H25.5469V47.5V48.5H27.2269V47.5ZM25.5469 47.5V46.5C25.4965 46.5 25.4581 46.497 25.4301 46.4932C25.4022 46.4895 25.3869 46.4852 25.3816 46.4835C25.3765 46.4819 25.3818 46.4831 25.3939 46.49C25.4064 46.4971 25.4227 46.5086 25.4399 46.525C25.4571 46.5415 25.4707 46.559 25.4806 46.5749C25.4903 46.5905 25.494 46.6008 25.4945 46.6021C25.4947 46.6028 25.4829 46.5676 25.4829 46.478H24.4829H23.4829C23.4829 46.9804 23.6127 47.5432 24.0545 47.9675C24.4885 48.3843 25.0506 48.5 25.5469 48.5V47.5ZM24.4829 46.478H25.4829V41.2H24.4829H23.4829V46.478H24.4829ZM24.4829 41.2V40.2H23.1529V41.2V42.2H24.4829V41.2ZM23.1529 41.2H24.1529V40.192H23.1529H22.1529V41.2H23.1529ZM23.1529 40.192V41.192H24.4829V40.192V39.192H23.1529V40.192ZM24.4829 40.192H25.4829V37.77H24.4829H23.4829V40.192H24.4829ZM24.4829 37.77V38.77H25.6869V37.77V36.77H24.4829V37.77ZM25.6869 37.77H24.6869V40.192H25.6869H26.6869V37.77H25.6869ZM25.6869 40.192V41.192H27.2129V40.192V39.192H25.6869V40.192ZM27.2129 40.192H26.2129V41.2H27.2129H28.2129V40.192H27.2129ZM27.2129 41.2V40.2H25.6869V41.2V42.2H27.2129V41.2ZM34.4071 44.098V45.098H35.2899L35.3994 44.222L34.4071 44.098ZM29.0171 44.098V43.098H28.0171V44.098H29.0171ZM33.2871 45.302V44.302H32.5345L32.3262 45.0251L33.2871 45.302ZM34.4911 45.302L35.4686 45.5128L35.7298 44.302H34.4911V45.302ZM33.3711 47.01L33.9433 47.8301L33.9496 47.8257L33.9559 47.8212L33.3711 47.01ZM29.0171 43.202H28.0171V44.202H29.0171V43.202ZM33.2451 43.202V44.202H34.2451V43.202H33.2451ZM31.2011 40.052V41.052C31.989 41.052 32.5255 41.2953 32.8644 41.6385C33.2046 41.983 33.4491 42.5329 33.4491 43.342H34.4491H35.4491C35.4491 42.1211 35.0705 41.026 34.2873 40.233C33.5027 39.4387 32.4152 39.052 31.2011 39.052V40.052ZM34.4491 43.342H33.4491C33.4491 43.5899 33.4366 43.7995 33.4148 43.974L34.4071 44.098L35.3994 44.222C35.4335 43.9485 35.4491 43.6541 35.4491 43.342H34.4491ZM34.4071 44.098V43.098H29.0171V44.098V45.098H34.4071V44.098ZM29.0171 44.098H28.0171V44.518H29.0171H30.0171V44.098H29.0171ZM29.0171 44.518H28.0171C28.0171 45.3979 28.3237 46.2056 28.9321 46.792C29.5371 47.3752 30.3573 47.66 31.2431 47.66V46.66V45.66C30.7848 45.66 30.4921 45.5178 30.3201 45.352C30.1514 45.1894 30.0171 44.9261 30.0171 44.518H29.0171ZM31.2431 46.66V47.66C32.6139 47.66 33.8617 46.9195 34.248 45.5789L33.2871 45.302L32.3262 45.0251C32.2365 45.3365 31.9163 45.66 31.2431 45.66V46.66ZM33.2871 45.302V46.302H34.4911V45.302V44.302H33.2871V45.302ZM34.4911 45.302L33.5136 45.0912C33.4117 45.5632 33.1878 45.9094 32.7863 46.1988L33.3711 47.01L33.9559 47.8212C34.7584 47.2426 35.2624 46.4688 35.4686 45.5128L34.4911 45.302ZM33.3711 47.01L32.7989 46.1899C32.3868 46.4774 31.8791 46.64 31.2151 46.64V47.64V48.64C32.2311 48.64 33.1514 48.3826 33.9433 47.8301L33.3711 47.01ZM31.2151 47.64V46.64C30.3934 46.64 29.818 46.3641 29.4386 45.9423C29.048 45.5081 28.7711 44.813 28.7711 43.818H27.7711H26.7711C26.7711 45.175 27.1521 46.3909 27.9516 47.2797C28.7622 48.1809 29.9088 48.64 31.2151 48.64V47.64ZM27.7711 43.818H28.7711C28.7711 42.8236 29.0476 42.1467 29.4306 41.7285C29.8042 41.3208 30.3763 41.052 31.2011 41.052V40.052V39.052C29.9118 39.052 28.7689 39.4902 27.956 40.3775C27.1526 41.2543 26.7711 42.4604 26.7711 43.818H27.7711ZM29.0171 43.006H28.0171V43.202H29.0171H30.0171V43.006H29.0171ZM29.0171 43.202V44.202H33.2451V43.202V42.202H29.0171V43.202ZM33.2451 43.202H34.2451V42.922H33.2451H32.2451V43.202H33.2451ZM33.2451 42.922H34.2451C34.2451 42.1 33.939 41.3525 33.3577 40.8165C32.7837 40.2873 32.0163 40.032 31.2011 40.032V41.032V42.032C31.6038 42.032 31.8585 42.1547 32.002 42.287C32.1382 42.4125 32.2451 42.61 32.2451 42.922H33.2451ZM31.2011 41.032V40.032C30.3521 40.032 29.5548 40.2968 28.9571 40.8347C28.3507 41.3804 28.0171 42.1492 28.0171 43.006H29.0171H30.0171C30.0171 42.6868 30.1314 42.4686 30.295 42.3213C30.4674 42.1662 30.7621 42.032 31.2011 42.032V41.032ZM37.0581 47.5V48.5H38.0581V47.5H37.0581ZM35.4901 47.5H34.4901V48.5H35.4901V47.5ZM35.4901 45.736V44.736H34.4901V45.736H35.4901ZM37.0581 45.736H38.0581V44.736H37.0581V45.736ZM37.0581 47.5V46.5H35.4901V47.5V48.5H37.0581V47.5ZM35.4901 47.5H36.4901V45.736H35.4901H34.4901V47.5H35.4901ZM35.4901 45.736V46.736H37.0581V45.736V44.736H35.4901V45.736ZM37.0581 45.736H36.0581V47.5H37.0581H38.0581V45.736H37.0581Z" fill="black" mask="url(#path-3-outside-1_15_29)"/>
</svg>
