<svg width="74" height="61" viewBox="0 0 74 61" fill="none" xmlns="http://www.w3.org/2000/svg">
<path d="M2.05114 22.1L25.0614 0.5H67.3707L72.5666 36.5L48.814 60.5H30.9996H13.1852L38.4223 34.1L45.845 41.3L47.3295 50.1L48.814 60.5L45.845 22.1H2.05114Z" fill="white"/>
<path d="M30.9996 29.3L25.0614 23.7H0.566605L4.27794 53.3L30.9996 29.3Z" fill="white"/>
<path d="M67.3707 0.5H25.0614L2.05114 22.1H45.845M67.3707 0.5L45.845 22.1M67.3707 0.5L72.5666 36.5L48.814 60.5M45.845 22.1L48.814 60.5M48.814 60.5L47.3295 50.1L45.845 41.3L38.4223 34.1L13.1852 60.5H30.9996H48.814ZM25.0614 23.7L30.9996 29.3L4.27794 53.3L0.566605 23.7H25.0614Z" stroke="black"/>
</svg>
